<?xml version="1.0" encoding="utf-8"?>
<!-- Generator: Adobe Illustrator 14.0.0, SVG Export Plug-In . SVG Version: 6.00 Build 43363)  -->
<!DOCTYPE svg PUBLIC "-//W3C//DTD SVG 1.1//EN" "http://www.w3.org/Graphics/SVG/1.1/DTD/svg11.dtd">
<svg version="1.1" id="Layer_1" xmlns="http://www.w3.org/2000/svg" xmlns:xlink="http://www.w3.org/1999/xlink" x="0px" y="0px"
	 width="1920px" height="1080px" viewBox="0 0 1920 1080" enable-background="new 0 0 1920 1080" xml:space="preserve">
<rect fill="#0079BF" width="1920" height="1080"/>
<g id="Page-1" sketch:type="MSPage">
	<g id="Original-Assets" transform="translate(-1039.000000, -1878.000000)" sketch:type="MSArtboardGroup">
		<g id="Group" transform="translate(229.000000, 198.000000)" sketch:type="MSLayerGroup">
			<g id="Mascots" transform="translate(810.000000, 1680.000000)" sketch:type="MSShapeGroup">
				<g id="Taco">
					<g>
						<g transform="translate(69.000000, 43.000000)">
							<g id="Head" transform="translate(0.000000, 78.393665)">
								<path id="Shape" fill="#0079BF" d="M1224.721,723.829c84.046-49.273,121.969-92.63,142.13-121.936
									c-0.572-13.027-23.308-39.758-23.308-39.758l-329.467,181.222c0,0-1.428,17.304,15.867,46.804
									C1063.119,792.767,1144.905,770.623,1224.721,723.829"/>
								<path id="Shape_1_" fill="#81929C" d="M1148.135,588.473c205.259-120.337,308.971-142.809,308.971-142.809
									c0.66,0.05-4.111-2.841-34.602-54.845c-43.807-74.725-78.188-97.483-100.441-122.013
									c-93.264-102.842-256.079-128.389-396.152-46.27c-118.155,69.27-181.374,192.572-168.348,306.385l-0.466-0.178
									c0,0,11.213,126.187,96.048,270.891C875.674,740.689,942.874,708.807,1148.135,588.473"/>
								<path id="Shape_2_" fill="#576D7A" d="M941.099,320.286c-32.067,0.38-54.453,12.1-54.453,12.1l31.613-44.759
									c0,0-27.951,4.734-41.757,33.683c9.731-66.288,47.909-97.802,49.001-98.53c-117.892,69.33-180.953,192.47-167.944,306.136
									l-0.465-0.175c0,0,11.216,126.187,96.051,270.892c9.816-25.708,28.144-46.262,62.705-71.256l105.208-340.195
									C1021.058,388.181,948.367,346.705,941.099,320.286"/>
								<path id="Shape_3_" fill="#FFFFFF" d="M883.847,776.492l4.99,33.676c0,0,39.55-40.835,79.634-46.687
									c32.518-4.743,94.323,8.992,230.224-72.302c135.914-81.285,189.561-171.459,209.129-185.285
									c19.553-13.833,37.179-21.786,37.179-21.786l-24.823-16.92l36.927-21.524c0,0-19.547-22.676-63.146-62.364
									c-41.381-37.668-91.205-20.855-111.268-1.643c-16.924-136.944-144.413-146.294-202.807-112.062
									c-41.382,24.263-66.556,67.104-58.827,118.585c-48.731-33.385-90.721-30.055-132.107-5.793
									c-58.384,34.231-113.339,149.689-1.459,231.394c-27.988,13.533-53.622,42.054-51.573,96.679
									c9.763,59.652,17.227,89.172,17.227,89.172L883.847,776.492L883.847,776.492z"/>
								<path id="Shape_4_" fill="#E1E4E6" d="M1456.685,445.681c-46.185-18.358-106.27,8.054-164.616,66.662
									c-48.728,48.95-14.671,75.891-115.406,135.371c-100.739,59.458-135.99-7.591-242.161,54.682
									c-33.028,19.375-70.149,47.963-82.461,94.801c0.703,1.558,1.104,2.436,1.104,2.436l30.708-23.144l4.984,33.68
									c0,0,39.55-40.835,79.637-46.687c32.516-4.745,94.32,8.992,230.221-72.302c135.914-81.285,189.561-171.461,209.129-185.285
									c19.557-13.836,37.18-21.786,37.18-21.786l-24.822-16.922L1456.685,445.681L1456.685,445.681z"/>
							</g>
							<g id="Nose" transform="translate(108.217391, 215.226244)">
								<path id="Shape_5_" fill="#333333" d="M1070.91,398.922c8.82,15.048,16.827,40.058-32.174,68.782
									c-47.754,27.997-66.916,9.526-75.735-5.518c-8.831-15.062-7.304-32.345,37.976-58.891
									C1048.729,375.298,1062.079,383.862,1070.91,398.922"/>
							</g>
							<g id="Left-Eye" transform="translate(74.043478, 149.660633)">
								<path id="Shape_6_" fill="#0079BF" d="M904.29,402.756c-14.377-24.525-40.224-36.09-57.689-25.853
									c-17.487,10.254-20.011,38.452-5.631,62.974c14.375,24.523,31.509,21.251,48.998,10.999
									C907.431,440.639,918.667,427.277,904.29,402.756"/>
								<path id="Shape_7_" d="M889.743,403.267c-6.589-11.243-21.144-14.941-32.51-8.277c-11.368,6.666-15.257,21.178-8.669,32.419
									c6.594,11.241,21.164,14.948,32.531,8.282C892.463,429.028,896.333,414.509,889.743,403.267"/>
								<path id="Shape_8_" fill="#FFFFFF" d="M867.661,395.632c4.492,7.655,2.582,17.103-4.237,21.1
									c-6.824,3.998-15.983,1.045-20.475-6.612c-4.483-7.654-2.592-17.093,4.232-21.096
									C854,385.028,863.176,387.975,867.661,395.632"/>
							</g>
							<g id="Right-Eye" transform="translate(160.902174, 149.660633)">
								<path id="Shape_9_" fill="#0079BF" d="M1018.123,285.095c-14.376-24.521-40.22-36.091-57.687-25.851
									c-17.49,10.254-20.014,38.452-5.635,62.974c14.378,24.523,31.51,21.251,49.002,10.999
									C1021.27,322.978,1032.502,309.62,1018.123,285.095"/>
								<path id="Shape_10_" d="M1003.577,285.608c-6.59-11.243-21.139-14.942-32.506-8.278
									c-11.369,6.663-15.261,21.176-8.672,32.419c6.592,11.242,21.166,14.947,32.534,8.282
									C1006.301,311.366,1010.172,296.849,1003.577,285.608"/>
								<path id="Shape_11_" fill="#FFFFFF" d="M981.499,277.97c4.488,7.658,2.579,17.104-4.235,21.101
									c-6.828,4.001-15.99,1.048-20.479-6.61c-4.486-7.652-2.591-17.097,4.234-21.097
									C967.836,267.367,977.01,270.316,981.499,277.97"/>
							</g>
							<g id="Mouth" transform="translate(85.434783, 226.628959)">
								<path id="Shape_12_" fill="#333333" d="M960.738,499.603c0,0,83.307,113.026,165.24,76.442
									c105.553-47.139,31.522-193.849,31.522-193.849s0.319,84.426-66.271,117.283
									C1024.642,532.323,960.738,499.603,960.738,499.603"/>
								<path id="Shape_13_" fill="#FFD2D5" d="M1011.484,516.509l43.006,79.343c20.735,32.041,70.102,47.309,107.086,25.625
									c36.985-21.683,47.766-72.212,29.935-105.957l-43.683-81.124c-11.896,17.471-36.625,38.634-63.221,54.226
									C1059.863,503.126,1037.483,510.507,1011.484,516.509"/>
								<path id="Shape_14_" fill="#E8AFB4" d="M1131.478,612.11c-46.518,10.705-83.873-69.859-96.727-101.773
									c-7.532,2.281-15.219,4.314-23.262,6.183l42.994,79.321c20.741,32.052,70.109,47.322,107.092,25.638
									c22.173-12.996,34.854-36.359,37.665-60.276C1190.286,580.453,1171.394,602.928,1131.478,612.11"/>
								<path id="Shape_15_" fill="#E8AFB4" d="M1084.607,488.621c-24.748,14.505-47.124,21.886-73.127,27.891l17.352,32.013
									c15.758,1.75,46.144,6.51,83.916-5.25c-23.175-24.574-42.959-37.457-42.959-37.457l35.658-20.901
									c0,0,15.681,16.192,25.69,43.86c22.168-20.507,31.466-42.382,34.878-60.608l-18.188-33.772
									C1135.931,451.866,1111.203,473.029,1084.607,488.621"/>
								<path id="Shape_16_" fill="#E8AFB4" d="M1112.748,543.273c8.662,9.17,17.776,19.933,26.538,32.32
									c0.118-17.896-3.385-33.653-8.142-46.824c-5.224,4.821-11.137,9.572-17.885,14.175
									C1113.089,543.07,1112.929,543.151,1112.748,543.273"/>
								<path id="Shape_17_" fill="#D1868F" d="M1105.445,484.911l-35.656,20.905c0,0,19.784,12.881,42.96,37.453
									c0.181-0.118,0.341-0.199,0.511-0.325c6.749-4.601,12.663-9.35,17.875-14.17
									C1121.128,501.103,1105.445,484.911,1105.445,484.911"/>
								<path id="Shape_18_" fill="#333333" d="M1156.089,357.592c11.615,35.554,2.937,95.906-64.861,141.887
									c-66.308,44.965-142.534,11.543-159.64-17.638c0,0,72.282,54.201,153.02,6.777
									C1165.355,441.202,1156.089,357.592,1156.089,357.592"/>
							</g>
							<g id="Left-Ear" transform="translate(18.510870, 0.000000)">
								<path id="Shape_19_" fill="#576D7A" d="M877.151,333.819c-125.756-96.748-247.347-113.838-262.203-103.091
									c-14.856,10.762-5.015,114.112,33.131,222.235c32.698,92.646,106.708,165.9,106.708,165.9"/>
								<path id="Shape_20_" fill="#BEC7CC" d="M795.693,362.632c-8.394-38.14-136.134-123.456-163.725-113.711
									c-18.538,6.564-3.844,87.333,29.898,189.307c33.72,101.98,84.013,142.969,84.013,142.969s-29.436-70.38-0.113-131.383
									C775.09,388.799,804.088,400.755,795.693,362.632"/>
								<path id="Shape_21_" fill="#D5DBDE" d="M783.012,357.822c9.543,17.149-34.594,42.022-55.922,89.694
									c-9.435-39.84,11.577-58.661,11.577-58.661s-36.106,4.324-56.762-4.962c8.785-10.778,40.259-18.497,40.259-18.497
									s-29.464-1.375-54.663-35.836c22.634-9.733,44.969,9.26,44.969,9.26s-38.812-28.79-34.574-60.592
									C690.422,283.733,767.527,330.044,783.012,357.822"/>
							</g>
							<g id="Right-Ear" transform="translate(148.086957, 0.000000)">
								<path id="Shape_22_" fill="#81929C" d="M821.482,290.49C798.494,133.492,842.96,19.051,859.597,11.336
									c16.634-7.705,102.018,51.359,177.728,137.462c64.887,73.772,92.647,174.142,92.647,174.142"/>
								<path id="Shape_23_" fill="#D5DBDE" d="M886.409,233.48c-29.18-25.95-41.239-179.089-19.256-198.406
									c14.789-12.974,78.082,39.306,150.6,118.543c72.506,79.244,71.207,128.476,71.207,128.476s-34.532-45.391-102.093-49.597
									C919.324,228.272,915.59,259.42,886.409,233.48"/>
								<path id="Shape_24_" fill="#F0F2F3" d="M888.418,220.063c10.29,16.71,53.56-9.659,105.57-4.983
									c-30.159-27.692-56.844-18.552-56.844-18.552s21.421-29.397,23.39-51.95c-13.693,2.401-35.794,26.092-35.794,26.092
									s13.19-26.381-4.586-65.195c-19.535,14.991-13.866,43.748-13.866,43.748s-6.165-47.921-35.998-59.75
									C868.974,103.087,871.735,192.982,888.418,220.063"/>
							</g>
						</g>
					</g>
				</g>
			</g>
		</g>
	</g>
</g>
</svg>
