<?xml version="1.0" encoding="utf-8"?>
<!-- Generator: Adobe Illustrator 14.0.0, SVG Export Plug-In . SVG Version: 6.00 Build 43363)  -->
<!DOCTYPE svg PUBLIC "-//W3C//DTD SVG 1.1//EN" "http://www.w3.org/Graphics/SVG/1.1/DTD/svg11.dtd">
<svg version="1.1" id="Layer_1" xmlns="http://www.w3.org/2000/svg" xmlns:xlink="http://www.w3.org/1999/xlink" x="0px" y="0px"
	 width="1920px" height="1080px" viewBox="0 0 1920 1080" enable-background="new 0 0 1920 1080" xml:space="preserve">
<linearGradient id="SVGID_1_" gradientUnits="userSpaceOnUse" x1="959.9995" y1="286.4502" x2="959.9995" y2="1080.0005">
	<stop  offset="0" style="stop-color:#FFFFFF;stop-opacity:0"/>
	<stop  offset="1" style="stop-color:#055A8C"/>
</linearGradient>
<rect y="286.45" fill="url(#SVGID_1_)" width="1920" height="793.55"/>
<g>
	<path fill="#0079BF" d="M1928.793,944.404c-0.058,0.628-0.12,1.256-0.185,1.884l11.129,20.668
		c4.011,7.59,6.771,15.911,8.325,24.574c51.638-38.526,79.684-72.038,96.786-96.899c-0.437-9.95-11.931-26.734-19.85-37.18
		C2000.687,883.243,1969.26,913.371,1928.793,944.404z"/>
	<path fill="#0079BF" d="M1779.54,1060.875l-0.007-0.012l0,0l-10.708-19.756c-58.89,26.796-101.672,35.465-133.354,38.705
		c2.548,8.95,7.157,20.728,15.484,34.931c27.1,2.129,81.947-9.873,144.364-35.956
		C1789.193,1073.514,1783.834,1067.51,1779.54,1060.875z"/>
	<path fill="#81929C" d="M1522.207,455.379c-13.468,8.24-26.292,17.093-38.466,26.476c0.002,0.001,0.004,0.003,0.006,0.004
		C1495.919,472.476,1508.74,463.62,1522.207,455.379z"/>
	<path fill="#81929C" d="M2109.916,647.854c-51.216-87.364-91.414-113.973-117.431-142.651
		c-17.604-19.412-37.337-36.452-58.727-51.004c-13.354-38.316-45.605-117.932-101.039-180.956
		c-88.516-100.667-188.342-169.722-207.789-160.713c-19.002,8.812-69.041,136.716-46.284,313.748
		c-16.63,7.073-33.106,15.324-49.321,24.83c-0.163,0.095-0.321,0.194-0.484,0.29c-1.373,0.932-45.916,37.776-57.28,115.19
		c16.141-33.845,48.819-39.38,48.819-39.38l-36.96,52.33c0,0,26.172-13.702,63.663-14.146c5.913,21.494,48.861,51.509,74.439,67.778
		c6.256,3.345,12.597,7.184,19.045,11.601c-9.036-60.188,20.396-110.277,68.777-138.644
		c68.271-40.022,217.324-29.091,237.11,131.017c23.456-22.463,81.708-42.119,130.088,1.92
		c50.974,46.402,73.827,72.913,73.827,72.913C2151.142,712.034,2145.563,708.654,2109.916,647.854z M1633.766,140.284
		c17.29-15.168,91.289,45.954,176.073,138.594c84.77,92.647,83.251,150.208,83.251,150.208s-40.373-53.068-119.361-57.986
		c-78.968-4.939-83.334,31.477-117.45,1.15C1622.163,341.91,1608.063,162.867,1633.766,140.284z"/>
	<path fill="#81929C" d="M1522.455,455.225c1.859-1.137,3.736-2.257,5.62-3.37C1526.191,452.968,1524.315,454.088,1522.455,455.225z
		"/>
	<path fill="#81929C" d="M1358.233,929.523c16.618,54.747,43.348,123.511,86.019,196.296c0-0.002,0.001-0.004,0.003-0.005
		l-0.003,0.001C1401.582,1053.031,1374.853,984.269,1358.233,929.523z"/>
	<path fill="#576D7A" d="M1442.961,1122.968c0.103-0.391,0.222-0.769,0.326-1.155c-2.563-10.9-9.998-44.18-19.175-100.252
		c-2.396-63.864,27.574-97.209,60.296-113.031c-130.804-95.524-66.554-230.512,1.706-270.533
		c42.911-25.156,86.382-31.035,135.408-4.827c-25.578-16.27-68.526-46.284-74.439-67.778c-37.491,0.444-63.663,14.146-63.663,14.146
		l36.96-52.33c0,0-32.679,5.535-48.819,39.38c11.364-77.414,55.907-114.258,57.28-115.19c0.002-0.001,0.008-0.006,0.009-0.007
		c-0.261,0.153-0.515,0.311-0.774,0.464c-1.884,1.113-3.761,2.233-5.62,3.37c-0.083,0.051-0.165,0.103-0.248,0.154
		c-13.467,8.241-26.288,17.097-38.46,26.48c-0.002-0.001-0.004-0.002-0.006-0.004c-143.333-106.301-279.367-125.097-296.333-112.824
		c-17.369,12.582-5.863,133.414,38.734,259.826c26.952,76.362,77.905,141.452,105.625,173.213c0.217,2.416,0.454,4.829,0.73,7.238
		l-0.543-0.205c0,0,4.268,47.911,26.278,120.42c16.619,54.745,43.349,123.508,86.019,196.292
		C1444.252,1125.815,1443.783,1124.789,1442.961,1122.968z M1207.307,390.301c32.259-11.394,181.605,88.354,191.419,132.945
		c9.814,44.571-24.089,30.592-58.372,101.928c-34.282,71.321,0.133,153.605,0.133,153.605s-58.8-47.921-98.224-167.151
		C1202.813,492.406,1185.634,397.976,1207.307,390.301z"/>
	<path fill="#FFFFFF" d="M2126.147,761.941c-8.168,4.308-20.415,11.27-33.396,20.452
		C2105.731,773.212,2117.979,766.249,2126.147,761.941z"/>
	<path fill="#FFFFFF" d="M1928.793,944.402c0,0,0,0,0,0.002c40.467-31.033,71.894-61.161,96.206-86.953
		c36.218-38.422,56.666-67.223,67.753-75.058C2074.221,795.485,2029.543,867.143,1928.793,944.402z"/>
	<polygon fill="#FFFFFF" points="1480.147,1098.762 1485.981,1138.134 1480.154,1098.758 	"/>
	<path fill="#FFFFFF" d="M1768.825,1041.107c-98.922,45.011-152.387,38.86-184.16,41.792c12.858-1.186,29.271-0.885,50.807-3.087
		C1667.153,1076.572,1709.936,1067.903,1768.825,1041.107L1768.825,1041.107z"/>
	<path fill="#FFFFFF" d="M2076.543,639.063c-48.38-44.039-106.632-24.383-130.088-1.92
		c-19.786-160.108-168.84-171.039-237.11-131.017c-48.382,28.367-77.813,78.455-68.777,138.644
		c-6.448-4.417-12.789-8.256-19.045-11.601c-49.026-26.208-92.497-20.329-135.408,4.827c-68.26,40.021-132.51,175.009-1.706,270.533
		c-32.722,15.822-62.691,49.167-60.296,113.031c9.177,56.072,16.611,89.352,19.175,100.252
		c14.7-54.069,57.743-87.189,96.083-109.681c69.168-40.569,112.592-34.193,157.862-32.62c-6.393-6.476-11.831-12.473-16.126-17.439
		c-21.619-9.07-37.997-22.106-45.257-34.492c0,0,84.508,63.369,178.901,7.924c94.406-55.437,83.572-153.188,83.572-153.188
		c3.405,10.42,5.316,22.664,5.023,36.008c3.37,7.585,8.753,20.646,13.762,36.863c9.075-20.381,15.558-40.389,40.31-65.254
		c68.216-68.521,138.464-99.401,192.46-77.938l-42.678,25.144h0.001l43.169-25.163
		C2150.37,711.976,2127.517,685.465,2076.543,639.063z M1523.168,714.906c20.421-11.969,50.639,1.552,67.447,30.226
		c16.81,28.668,3.674,44.291-16.744,56.26c-20.448,11.985-40.479,15.812-57.286-12.859
		C1499.772,759.862,1502.724,726.895,1523.168,714.906z M1757.811,577.346c20.421-11.973,50.636,1.555,67.443,30.223
		c16.812,28.673,3.679,44.291-16.741,56.263c-20.451,11.985-40.48,15.812-57.29-12.859
		C1734.411,622.303,1737.361,589.334,1757.811,577.346z M1787.757,897.722c-55.831,32.732-78.234,11.138-88.545-6.451
		c-10.325-17.609-8.539-37.815,44.398-68.852c55.83-32.733,71.439-22.722,81.763-5.114
		C1835.686,834.898,1845.046,864.138,1787.757,897.722z"/>
	<path fill="#E1E4E6" d="M2149.878,711.995c-53.996-21.464-124.244,9.416-192.46,77.938c-24.752,24.865-31.234,44.873-40.31,65.254
		c7.742,25.066,14.583,57.663,11.685,89.216c100.75-77.26,145.428-148.917,163.959-162.009c12.98-9.183,25.228-16.145,33.396-20.452
		c6.218-3.278,10.073-5.019,10.073-5.019l-29.02-19.784h-0.001L2149.878,711.995z"/>
	<path fill="#E1E4E6" d="M1768.825,1041.107l-6.189-11.42c-26.158-13.694-48.957-33.52-65.403-50.176
		c-45.271-1.573-88.694-7.949-157.862,32.62c-38.34,22.491-81.383,55.611-96.083,109.681c-0.104,0.387-0.224,0.765-0.326,1.155
		c0.822,1.821,1.291,2.848,1.291,2.848l0.003-0.001l35.893-27.053l0.007-0.004l5.827,39.376c0,0,1.366-1.41,3.866-3.781
		c0.456-0.431,0.946-0.893,1.476-1.385c0.528-0.492,1.092-1.013,1.691-1.56c14.676-13.407,50.191-42.619,86.074-47.857
		c1.782-0.261,3.639-0.473,5.576-0.651C1616.438,1079.968,1669.903,1086.118,1768.825,1041.107z"/>
	<path fill="#333333" d="M1825.373,817.305c-10.323-17.607-25.933-27.619-81.763,5.114c-52.938,31.036-54.724,51.242-44.398,68.852
		c10.311,17.589,32.714,39.184,88.545,6.451C1845.046,864.138,1835.686,834.898,1825.373,817.305z"/>
	<path fill="#0079BF" d="M1573.871,801.392c20.418-11.969,33.554-27.592,16.744-56.26c-16.809-28.674-47.026-42.194-67.447-30.226
		c-20.444,11.988-23.396,44.956-6.583,73.626C1533.392,817.203,1553.423,813.377,1573.871,801.392z M1521.842,757.612
		c-1.097-1.146-2.097-2.429-2.942-3.871c-5.242-8.949-3.03-19.984,4.948-24.664c6.589-3.861,15.054-2.165,20.755,3.591
		c11.203-2.125,22.967,2.756,29.006,13.062c7.704,13.144,3.181,30.117-10.11,37.908c-13.29,7.793-30.324,3.459-38.034-9.684
		C1522.462,768.831,1521.329,763.128,1521.842,757.612z"/>
	<path d="M1563.498,783.638c13.291-7.791,17.814-24.765,10.11-37.908c-6.039-10.306-17.803-15.187-29.006-13.062
		c1.196,1.208,2.279,2.582,3.188,4.135c5.252,8.95,3.019,19.995-4.954,24.669c-6.692,3.921-15.295,2.106-20.995-3.859
		c-0.513,5.516,0.62,11.219,3.622,16.342C1533.174,787.097,1550.208,791.431,1563.498,783.638z"/>
	<path fill="#FFFFFF" d="M1542.837,761.472c7.973-4.674,10.206-15.719,4.954-24.669c-0.909-1.553-1.992-2.927-3.188-4.135
		c-5.701-5.756-14.166-7.452-20.755-3.591c-7.979,4.68-10.19,15.715-4.948,24.664c0.846,1.442,1.846,2.726,2.942,3.871
		C1527.542,763.578,1536.145,765.393,1542.837,761.472z"/>
	<path fill="#0079BF" d="M1808.513,663.831c20.42-11.972,33.553-27.59,16.741-56.263c-16.808-28.668-47.022-42.195-67.443-30.223
		c-20.449,11.988-23.399,44.957-6.588,73.626C1768.032,679.643,1788.062,675.816,1808.513,663.831z M1758.491,591.516
		c6.589-3.863,15.051-2.166,20.756,3.592c11.202-2.127,22.961,2.756,29.001,13.061c7.71,13.143,3.185,30.115-10.105,37.907
		c-13.291,7.793-30.331,3.461-38.037-9.683c-3.002-5.123-4.136-10.825-3.623-16.34c-1.096-1.146-2.097-2.43-2.942-3.873
		C1748.295,607.233,1750.511,596.191,1758.491,591.516z"/>
	<path d="M1777.483,623.908c-6.696,3.924-15.3,2.11-21.001-3.855c-0.513,5.515,0.621,11.217,3.623,16.34
		c7.706,13.144,24.746,17.476,38.037,9.683c13.29-7.792,17.815-24.765,10.105-37.907c-6.04-10.305-17.799-15.188-29.001-13.061
		c1.196,1.206,2.278,2.58,3.188,4.131C1787.683,608.192,1785.451,619.235,1777.483,623.908z"/>
	<path fill="#FFFFFF" d="M1756.482,620.053c5.701,5.966,14.305,7.779,21.001,3.855c7.968-4.673,10.199-15.716,4.952-24.67
		c-0.91-1.551-1.992-2.925-3.188-4.131c-5.705-5.758-14.167-7.455-20.756-3.592c-7.98,4.676-10.196,15.718-4.951,24.664
		C1754.386,617.623,1755.387,618.906,1756.482,620.053z"/>
	<path fill="#333333" d="M1762.636,1029.688l-8.236-15.193l-4.851-8.95c-0.003-0.001-0.005-0.001-0.007-0.001l-17.278-31.879
		c22.512,1.133,46.807-2.71,70.659-14.19c0-0.001,0.001-0.001,0.001-0.001c6.572-3.163,13.109-6.893,19.567-11.271
		c6.86-4.652,13.191-9.434,19.047-14.31c22.945-19.105,38.395-39.687,48.108-59.961l20.283,37.664c0,0.001,0,0.002-0.001,0.004
		l18.68,34.689c0.064-0.628,0.127-1.256,0.185-1.884c0-0.002,0-0.002,0-0.002c2.898-31.553-3.942-64.149-11.685-89.216
		c-5.009-16.217-10.392-29.278-13.762-36.863c0.293-13.344-1.618-25.588-5.023-36.008c0,0,10.834,97.752-83.572,153.188
		c-94.394,55.445-178.901-7.924-178.901-7.924c7.26,12.386,23.638,25.422,45.257,34.492c4.295,4.967,9.733,10.964,16.126,17.439
		C1713.679,996.168,1736.478,1015.993,1762.636,1029.688z"/>
	<path fill="#FFD2D5" d="M1923.324,1076.066c-0.313,0.331-0.628,0.662-0.948,0.987
		C1922.696,1076.729,1923.009,1076.397,1923.324,1076.066z"/>
	<path fill="#FFD2D5" d="M1912.816,1085.44c-0.185,0.138-0.367,0.279-0.554,0.416
		C1912.449,1085.719,1912.632,1085.578,1912.816,1085.44z"/>
	<path fill="#FFD2D5" d="M1908.908,1088.217c-0.172,0.115-0.348,0.229-0.522,0.343
		C1908.561,1088.445,1908.736,1088.332,1908.908,1088.217z"/>
	<path fill="#FFD2D5" d="M1926.677,1072.333c-0.516,0.607-1.039,1.209-1.571,1.803
		C1925.639,1073.542,1926.16,1072.94,1926.677,1072.333z"/>
	<path fill="#FFD2D5" d="M1919.813,1079.558c-0.249,0.233-0.502,0.461-0.754,0.692
		C1919.313,1080.019,1919.564,1079.791,1919.813,1079.558z"/>
	<path fill="#FFD2D5" d="M1916.165,1082.794c-0.035,0.029-0.07,0.062-0.105,0.091
		C1916.095,1082.855,1916.13,1082.823,1916.165,1082.794z"/>
	<path fill="#FFD2D5" d="M1779.533,1060.863l0.007,0.012c4.294,6.635,9.653,12.639,15.78,17.912
		c11.171,9.613,24.93,16.763,39.694,20.622C1812.15,1093.431,1791.658,1079.6,1779.533,1060.863z"/>
	<path fill="#FFD2D5" d="M1928.608,946.288l-18.68-34.689c-3.99,21.306-14.858,46.876-40.769,70.849
		c5.562,15.398,9.657,33.821,9.519,54.744c-10.244-14.483-20.899-27.066-31.027-37.787c0.213-0.143,0.398-0.238,0.599-0.385
		c-0.198,0.146-0.386,0.242-0.597,0.38c-19.149-20.303-36.306-33.769-44.729-39.927c0,0-0.001,0-0.001,0.001
		c8.423,6.159,25.58,19.626,44.729,39.932c-26.77,8.335-50.357,9.567-68.895,8.794c21.438,38.922,53.61,80.242,90.794,71.686
		c46.667-10.736,68.754-37.013,79.224-59.52c-2.134,18.16-9.142,36.044-20.889,50.516c18.074-22.208,25.004-52.441,20.177-79.351
		c-1.555-8.663-4.314-16.984-8.325-24.574L1928.608,946.288z"/>
	<polygon fill="#FFD2D5" points="1749.549,1005.544 1749.549,1005.544 1754.399,1014.494 	"/>
	<path fill="#FFD2D5" d="M1865.976,985.305c1.079-0.948,2.145-1.897,3.177-2.85c-2.373-6.558-5.018-12.552-7.727-17.959
		c2.708,5.407,5.353,11.4,7.723,17.956C1868.117,983.406,1867.055,984.355,1865.976,985.305z"/>
	<path fill="#E8AFB4" d="M1869.551,1079.885c-37.184,8.557-69.356-32.764-90.794-71.686c18.537,0.773,42.125-0.459,68.895-8.794
		c-19.148-20.306-36.306-33.772-44.729-39.932c-23.853,11.48-48.147,15.323-70.659,14.19l17.278,31.879c0.002,0,0.004,0,0.007,0.001
		l0,0l4.851,8.95l8.236,15.193l6.189,11.42l0,0l10.708,19.756l0,0c12.125,18.736,32.617,32.567,55.481,38.546
		c22.866,5.979,48.105,4.104,69.725-8.572c1.243-0.729,2.453-1.494,3.646-2.277c0.175-0.114,0.351-0.228,0.522-0.343
		c1.143-0.763,2.26-1.55,3.354-2.36c0.187-0.137,0.369-0.278,0.554-0.416c1.104-0.832,2.189-1.679,3.243-2.556
		c0.035-0.029,0.07-0.062,0.105-0.091c0.989-0.827,1.949-1.679,2.895-2.544c0.252-0.231,0.505-0.459,0.754-0.692
		c0.872-0.818,1.728-1.653,2.563-2.504c0.32-0.325,0.635-0.656,0.948-0.987c0.604-0.635,1.198-1.279,1.781-1.931
		c0.532-0.594,1.056-1.195,1.571-1.803c0.407-0.48,0.812-0.964,1.209-1.452c11.747-14.472,18.755-32.355,20.889-50.516
		C1938.305,1042.872,1916.218,1069.148,1869.551,1079.885z"/>
	<path fill="#E8AFB4" d="M1889.646,873.931c-9.714,20.274-25.163,40.855-48.108,59.961c3.969,4.671,12.188,15.228,19.888,30.604
		c2.709,5.407,5.354,11.401,7.727,17.959c-1.032,0.952-2.098,1.901-3.177,2.85c-5.298,4.656-11.17,9.246-17.726,13.715
		c-0.2,0.146-0.386,0.242-0.599,0.385c10.128,10.721,20.783,23.304,31.027,37.787c0.139-20.923-3.957-39.346-9.519-54.744
		c25.91-23.973,36.778-49.543,40.769-70.849c0.001-0.002,0.001-0.003,0.001-0.004L1889.646,873.931z"/>
	<path fill="#D1868F" d="M1869.148,982.452c-2.37-6.556-5.015-12.549-7.723-17.956c-7.7-15.377-15.919-25.934-19.888-30.604
		c-5.855,4.876-12.187,9.657-19.047,14.31c-6.458,4.379-12.995,8.108-19.567,11.271c8.424,6.158,25.58,19.624,44.729,39.927
		c0.211-0.138,0.398-0.233,0.597-0.38c6.556-4.469,12.428-9.059,17.726-13.715C1867.055,984.355,1868.117,983.406,1869.148,982.452z
		"/>
	<path fill="#BEC7CC" d="M1340.486,778.779c0,0-34.415-82.284-0.133-153.605c34.283-71.336,68.187-57.357,58.372-101.928
		c-9.813-44.591-159.16-144.338-191.419-132.945c-21.673,7.675-4.493,102.105,34.956,221.327
		C1281.687,730.858,1340.486,778.779,1340.486,778.779z M1332.053,553.904c0,0-42.214,5.057-66.362-5.801
		c10.271-12.602,47.068-21.625,47.068-21.625s-34.447-1.608-63.909-41.897c22.443-9.651,44.627,4.851,50.85,9.48
		c-8.233-6.604-43.069-36.675-38.697-69.495c14.646,6.436,104.793,60.58,122.896,93.057c11.157,20.05-40.445,49.13-65.381,104.866
		C1307.487,575.91,1332.053,553.904,1332.053,553.904z"/>
	<path fill="#D5DBDE" d="M1383.898,517.623c-18.104-32.477-108.251-86.621-122.896-93.057
		c-4.372,32.819,30.464,62.891,38.697,69.495c-6.223-4.629-28.406-19.131-50.85-9.48c29.462,40.29,63.909,41.897,63.909,41.897
		s-36.797,9.024-47.068,21.625c24.148,10.857,66.362,5.801,66.362,5.801s-24.565,22.006-13.535,68.584
		C1343.453,566.753,1395.056,537.673,1383.898,517.623z"/>
	<path fill="#D5DBDE" d="M1656.278,372.249c34.116,30.327,38.482-6.089,117.45-1.15c78.988,4.917,119.361,57.986,119.361,57.986
		s1.519-57.56-83.251-150.208c-84.784-92.64-158.783-153.762-176.073-138.594C1608.063,162.867,1622.163,341.91,1656.278,372.249z
		 M1637.433,203.882c30.773,12.202,40.005,57.245,41.753,67.68c-1.002-7.709-2.812-34.117,16.546-48.971
		c20.783,45.38,5.361,76.223,5.361,76.223s25.839-27.698,41.849-30.505c-2.302,26.367-27.346,60.737-27.346,60.737
		s31.198-10.686,66.458,21.689c-60.808-5.466-111.396,25.363-123.427,5.827C1639.123,324.901,1635.894,219.8,1637.433,203.882z"/>
	<path fill="#F0F2F3" d="M1782.054,350.735c-35.26-32.375-66.458-21.689-66.458-21.689s25.044-34.37,27.346-60.737
		c-16.01,2.807-41.849,30.505-41.849,30.505s15.422-30.843-5.361-76.223c-19.357,14.854-17.548,41.262-16.546,48.971
		c-1.748-10.436-10.979-55.478-41.753-67.68c-1.539,15.918,1.69,121.019,21.194,152.68
		C1670.657,376.098,1721.246,345.269,1782.054,350.735z"/>
</g>
<g id="Page-1">
	<g id="Trello-logo-white">
		<g id="trello-logo-white" transform="translate(0.312500, 0.000000)">
			<path id="Type" fill="#FFFFFF" d="M1091.801,958.744c-16.316,6.65-29.191,29.626-48.773,42.685
				c-1.213,0.81-2.428,1.215-3.238,1.215c-1.619,0-3.643-1.62-3.643-8.907c0-25.103,8.096-37.249,14.977-55.063
				c23.881-61.947,64.76-114.986,101.188-172.884c2.834-4.454,4.453-9.313,4.453-14.576c0-4.454-1.619-8.098-3.643-12.552
				c-1.619-3.644-8.904-6.883-17-6.883c-4.453,0-8.5,0.405-13.762,0.405c-19.023,0-23.07,27.937-27.523,35.224
				c-30.355,51.42-65.166,114.987-82.975,159.929c-3.904,10.074-8.123,20.149-11.33,30.49c-17.6,5.097-30.783,29.85-51.407,43.603
				c-1.213,0.81-2.428,1.215-3.238,1.215c-1.619,0-3.643-1.62-3.643-8.907c0-25.103,8.096-37.249,14.977-55.063
				c23.879-61.947,64.76-114.986,101.188-172.884c2.834-4.454,4.453-9.313,4.453-14.576c0-4.454-1.619-8.098-3.643-12.552
				c-1.619-3.644-8.904-6.883-17-6.883c-4.453,0-8.5,0.405-13.762,0.405c-19.023,0-23.072,27.937-27.523,35.224
				c-30.357,51.42-65.167,114.987-82.975,159.929c-1.416,3.651-2.872,7.305-4.309,10.97c-0.441,0.237-0.895,0.494-1.357,0.772
				c-20.643,12.146-38.047,33.604-63.143,48.18c-4.857,2.835-19.832,13.361-31.975,13.361c-2.833,0-5.262-0.811-7.69-2.024
				c-3.643-1.619-7.286-9.313-7.286-11.741c0-2.025,0.405-2.43,4.453-4.858c35.617-21.459,64.76-52.23,89.854-83.001
				c9.31-11.336,21.452-33.605,21.452-49.801c0-10.526-3.643-22.673-16.19-27.127c-8.904-3.239-19.022-4.858-27.118-4.858
				c-21.451,0-37.236,9.717-46.143,19.03c-9.064,9.68-17.834,19.62-25.979,29.91c-8.513-7.35-20.519-10.477-31.899-10.477
				c-13.357,0-38.451,16.601-51.404,26.316c-2.023,1.62-3.238,2.43-4.047,2.43c-0.404,0-0.809-0.404-0.809-1.215
				c0-0.404,0.809-4.048,0.809-10.526c0-5.669-1.215-12.956-6.477-21.863c-1.213-2.023-8.5-6.479-17.403-6.479
				c-10.929,0-21.048,5.264-21.048,10.932c0,4.049,3.643,5.669,3.643,9.313c0,2.024-1.619,11.337-4.048,20.244
				c-6.881,25.912-15.38,51.42-24.284,76.928c-4.857,14.17-21.048,26.722-21.048,42.107c0,4.858,3.237,11.337,7.69,16.195
				c7.285,8.098,11.738,10.932,18.214,10.932c2.833,0,6.071-0.81,8.904-3.239c6.071-5.264,9.31-10.527,10.929-17.814
				c10.523-47.776,40.881-80.167,74.475-101.626c11.332-7.287,26.713-14.98,28.737-14.98c2.075,0,5.32,0.959,8.591,1.893
				c-9.391,15.322-17,31.479-21.947,48.719c-1.619,5.667-2.43,10.931-2.43,16.6c0,9.312,2.024,19.029,5.263,28.342
				c4.452,12.956,11.737,24.293,21.856,29.557c18.619,9.717,31.977,14.98,44.119,14.98c6.881,0,12.143-1.215,17.809-4.454
				c26.604-15.057,42.914-26.479,54.691-36.625c0.322,10.287,2.35,15.986,9.664,23.668c7.286,7.693,18.619,14.577,33.596,17.815
				c2.428,0.405,4.855,0.81,7.285,0.81c17.133,0,33.624-13.932,46.338-27.741c1.473,3.014,3.611,5.891,6.684,9.116
				c7.285,7.693,18.619,14.577,33.596,17.815c2.428,0.405,4.857,0.81,7.285,0.81c20.07,0,39.258-19.116,52.529-34.761
				c4.422,9.151,16.783,18.198,31.658,25.449c4.049,2.023,8.906,3.238,13.357,3.238c17.404,0,29.953-14.171,39.666-24.697
				c25.096-27.532,38.855-61.542,49.381-104.46c0.809-3.238,2.023-4.453,3.643-4.453c4.049,0,9.311,0,14.975-0.81
				c10.93-1.619,19.43-5.263,29.547-6.883c6.072-1.215,5.262-3.239,10.93-5.265c4.047-1.618,7.285-3.237,7.285-7.287
				c0-6.883-12.547-14.171-31.57-14.171c-14.977,0-23.879,1.214-29.953,1.214c-9.309,0-11.736-2.833-17.809-18.624
				c0,0,6.072,15.791,0,0c-1.215-3.238-2.428-4.858-6.07-8.097c-8.5-7.288-19.023-9.718-27.523-9.718
				c-20.238,0-37.643,20.649-49.785,38.059c-2.834,4.05-6.881,7.288-9.715,11.742
				C1109.734,900.123,1093.77,928.335,1091.801,958.744z M574.323,820.853c10.118,0,15.786-0.811,16.999-0.811
				c1.215,0,2.025,0.404,2.025,1.619c0,0.812-0.406,2.025-3.238,8.099c-24.69,53.039-41.69,106.888-56.666,166.405
				c-0.404,1.62-1.619,7.693-1.619,13.767c0,5.668,1.619,11.742,7.285,14.98c10.929,6.479,19.833,9.313,25.904,9.313
				c8.904,0,13.357-5.669,13.357-14.98c0-8.099,0.404-16.601,1.619-23.079c11.332-59.518,28.332-106.078,54.641-154.664
				c12.549-23.078,14.167-24.293,14.167-26.317c0-0.81-0.405-2.024-1.214-3.239c16.189-3.644,35.618-6.072,53.428-6.072
				c2.023,0,10.119,2.834,11.332,4.049c2.834,2.834,5.668,5.667,10.523,5.667c4.049,0,10.93-2.833,13.357-4.452
				c5.666-4.05,8.5-8.503,8.5-15.792c0-6.882-25.5-23.888-43.309-23.888c-21.856,0-41.689,2.835-60.309,6.479
				c-8.096,1.62-37.236,6.072-58.284,6.072c-20.237,0-19.023-2.833-27.523-2.833c-4.856,0-7.285,2.43-9.31,4.453
				c-2.023,2.025-3.238,10.123-3.238,17.41c0,3.644,0,6.479,2.024,8.907C550.847,819.232,562.585,820.853,574.323,820.853
				C574.323,820.853,562.585,820.853,574.323,820.853z M874.246,853.647c0,3.645-1.215,6.073-6.072,13.767
				c-4.857,7.692-2.833,7.692-8.904,15.789c-11.738,15.791-26.309,31.581-45.332,48.991c-5.262,4.858-6.071,4.858-6.881,4.858
				c-0.404,0-1.214-0.405-1.214-1.215c0-1.215,0.404-2.834,4.452-11.337c12.547-26.317,27.928-43.727,44.928-60.73
				c9.309-9.313,14.975-12.552,17-12.552C873.435,851.219,874.246,851.623,874.246,853.647
				C874.246,853.647,874.246,851.623,874.246,853.647z M1185.502,864.175c0.404,0,0.809,0.404,1.213,1.214
				c0.406,1.215,1.215,2.43,3.238,4.049c1.619,1.215,1.619,6.884,1.619,11.337c0,39.273-22.262,71.664-44.117,104.46
				c-4.857,7.287-7.691,8.502-10.119,8.502c-2.025,0-5.264-5.264-6.477-8.502c-1.619-4.454-2.023-9.718-2.023-11.742
				c0-31.58,29.951-78.547,49.785-104.459C1181.859,864.579,1184.287,864.175,1185.502,864.175
				C1185.502,864.175,1184.287,864.175,1185.502,864.175z"/>
			<path id="Board" fill="#FFFFFF" d="M276.814,779.604h191.642c17.634,0,31.942,14.306,31.942,31.952v191.701
				c0,17.641-14.301,31.954-31.942,31.954H276.814c-17.633,0-31.942-14.307-31.942-31.954V811.556
				C244.872,793.917,259.173,779.604,276.814,779.604z M404.572,812.832c-8.466,0-15.328,6.866-15.328,15.345v81.779
				c0,8.475,6.865,15.344,15.328,15.344h47.279c8.466,0,15.328-6.866,15.328-15.344v-81.779c0-8.476-6.865-15.345-15.328-15.345
				H404.572z M293.417,812.832c-8.465,0-15.328,6.86-15.328,15.344v145.683c0,8.473,6.865,15.343,15.328,15.343h47.28
				c8.465,0,15.327-6.859,15.327-15.343V828.176c0-8.475-6.864-15.344-15.327-15.344H293.417z"/>
		</g>
	</g>
</g>
</svg>
